<svg xmlns="http://www.w3.org/2000/svg" version="1.1" xmlns:xlink="http://www.w3.org/1999/xlink" xmlns:svgjs="http://svgjs.dev/svgjs" width="1500" height="541" viewBox="0 0 1500 541"><g transform="matrix(1,0,0,1,-0.9090909090909918,-0.14781764732481406)"><svg viewBox="0 0 396 143" data-background-color="#a1b0f6" preserveAspectRatio="xMidYMid meet" height="541" width="1500" xmlns="http://www.w3.org/2000/svg" xmlns:xlink="http://www.w3.org/1999/xlink"><g id="tight-bounds" transform="matrix(1,0,0,1,0.2400000000000091,0.03907194744445519)"><svg viewBox="0 0 395.52 142.9218561051111" height="142.9218561051111" width="395.52"><g><svg viewBox="0 0 676.4360199471455 244.43135999999998" height="142.9218561051111" width="395.52"><g transform="matrix(1,0,0,1,0,77.07455559774871)"><svg viewBox="0 0 395.52 90.28224880450256" height="90.28224880450256" width="395.52"><g id="textblocktransform"><svg viewBox="0 0 395.52 90.28224880450256" height="90.28224880450256" width="395.52" id="textblock"><g><svg viewBox="0 0 395.52 61.818499037844774" height="61.818499037844774" width="395.52"><g transform="matrix(1,0,0,1,0,0)"><svg width="395.52" viewBox="1.4 -36.2 233.82999999999998 36.550000000000004" height="61.818499037844774" data-palette-color="#223fc0"><path d="M12.25 0.35L12.25 0.35Q8.6 0.35 6.2-1.13 3.8-2.6 2.6-5.03 1.4-7.45 1.4-10.25L1.4-10.25Q1.4-12.9 2.43-15.58 3.45-18.25 5.43-20.45 7.4-22.65 10.23-24 13.05-25.35 16.6-25.35L16.6-25.35Q21-25.35 23.03-23.38 25.05-21.4 25.05-18.6L25.05-18.6Q25.05-16.2 23.78-14.18 22.5-12.15 20.4-10.93 18.3-9.7 15.8-9.7L15.8-9.7Q14.5-9.7 13.15-10.1 11.8-10.5 10.5-11.35L10.5-11.35Q10.75-8.25 12.3-6.85 13.85-5.45 16-5.45L16-5.45Q17.5-5.45 19-6.03 20.5-6.6 21.78-7.53 23.05-8.45 23.75-9.5L23.75-9.5 24.1-9.25Q24.1-6.65 23.03-4.83 21.95-3 20.2-1.85 18.45-0.7 16.38-0.18 14.3 0.35 12.25 0.35ZM13.4-13.15L13.4-13.15Q15-13.15 16-14.08 17-15 17.5-16.25 18-17.5 18-18.45L18-18.45Q18-19.6 17.35-20.38 16.7-21.15 15.55-21.15L15.55-21.15Q14.65-21.15 13.58-20.5 12.5-19.85 11.65-18.28 10.8-16.7 10.55-13.9L10.55-13.9Q12.15-13.15 13.4-13.15ZM34.7 0.2L34.7 0.2Q32.9 0.2 31.32-1.05 29.75-2.3 28.77-4.7 27.8-7.1 27.8-10.5L27.8-10.5Q27.8-14 28.8-16.75 29.8-19.5 31.42-21.43 33.05-23.35 34.97-24.35 36.9-25.35 38.75-25.35L38.75-25.35Q40.8-25.35 42.4-24.08 44-22.8 44.6-20.1L44.6-20.1Q45.05-22.6 45.37-24.88 45.7-27.15 45.7-28.9L45.7-28.9Q45.7-31.2 45.1-32.25L45.1-32.25 45.1-32.55Q46.25-33.85 47.62-34.48 49-35.1 50.25-35.1L50.25-35.1Q51.9-35.1 53.05-34.08 54.2-33.05 54.2-31.15L54.2-31.15Q54.2-30.1 53.85-28.05 53.5-26 53-23.38 52.5-20.75 51.97-17.98 51.45-15.2 51.1-12.68 50.75-10.15 50.75-8.3L50.75-8.3Q50.75-6.75 51.07-5.83 51.4-4.9 52.15-4.9L52.15-4.9Q52.7-4.9 53.27-5.28 53.85-5.65 54.05-6.15L54.05-6.15 54.4-5.9Q54.4-4.25 53.35-2.88 52.3-1.5 50.7-0.65 49.1 0.2 47.4 0.2L47.4 0.2Q45.55 0.2 44.47-0.83 43.4-1.85 42.95-3.45 42.5-5.05 42.45-6.75L42.45-6.75Q40.9-3.15 38.82-1.48 36.75 0.2 34.7 0.2ZM38.05-6.15L38.05-6.15Q39.35-6.15 40.95-8.5 42.55-10.85 43.75-15.35L43.75-15.35 44.05-16.9Q43.25-18.75 42.32-19.53 41.4-20.3 40.55-20.3L40.55-20.3Q39.3-20.3 38.2-18.93 37.1-17.55 36.42-15.43 35.75-13.3 35.75-10.95L35.75-10.95Q35.75-8.7 36.4-7.43 37.05-6.15 38.05-6.15ZM63.3 0.2L63.3 0.2Q61.05 0.2 59.52-1.65 58-3.5 58-6.6L58-6.6Q58-8.3 58.4-10.25 58.8-12.2 59.2-13.95L59.2-13.95Q59.55-15.25 59.77-16.38 60-17.5 60-18.2L60-18.2Q60-19.1 59.62-19.5 59.25-19.9 58.75-19.9L58.75-19.9Q58.25-19.9 57.75-19.58 57.25-19.25 56.95-18.6L56.95-18.6 56.55-18.75Q56.55-20.8 57.55-22.25 58.55-23.7 60.1-24.45 61.65-25.2 63.25-25.2L63.25-25.2Q64.55-25.2 65.75-24.68 66.95-24.15 67.72-23.05 68.5-21.95 68.5-20.3L68.5-20.3Q68.5-19.3 68.22-17.9 67.95-16.5 67.59-15L67.59-15Q67.25-13.45 66.92-11.88 66.59-10.3 66.59-9.1L66.59-9.1Q66.59-8 66.95-7.3 67.3-6.6 68-6.6L68-6.6Q69.3-6.6 70.92-9 72.55-11.4 73.55-15.45L73.55-15.45Q73.75-16.25 73.9-17.15 74.05-18.05 74.05-19L74.05-19Q74.05-19.75 73.95-20.53 73.84-21.3 73.65-22.1L73.65-22.1 73.65-22.45Q74.45-23.8 75.72-24.5 77-25.2 78.3-25.2L78.3-25.2Q80.05-25.2 81.45-24 82.84-22.8 82.84-20.5L82.84-20.5Q82.84-19.15 82.34-17.38 81.84-15.6 81.25-13.7L81.25-13.7Q80.65-11.85 80.15-10.05 79.65-8.25 79.65-6.85L79.65-6.85Q79.65-4.8 81.09-4.8L81.09-4.8Q81.5-4.8 82.07-5.03 82.65-5.25 83.15-5.95L83.15-5.95 83.5-5.85Q83.5-4.05 82.52-2.68 81.55-1.3 80.05-0.55 78.55 0.2 76.95 0.2L76.95 0.2Q74.9 0.2 73.27-1.3 71.65-2.8 71.65-6.2L71.65-6.2 71.65-6.3Q69.59-2.8 67.4-1.3 65.2 0.2 63.3 0.2ZM95.74 0.35L95.74 0.35Q92.44 0.35 90.17-1.15 87.89-2.65 86.74-5.08 85.59-7.5 85.59-10.3L85.59-10.3Q85.59-12.95 86.62-15.6 87.64-18.25 89.64-20.48 91.64-22.7 94.52-24.03 97.39-25.35 101.14-25.35L101.14-25.35Q104.84-25.35 106.64-23.88 108.44-22.4 108.44-20.65L108.44-20.65Q108.44-18.8 106.59-17.25 104.74-15.7 101.19-15.7L101.19-15.7Q101.39-16.45 101.52-17.23 101.64-18 101.64-18.7L101.64-18.7Q101.64-19.75 101.19-20.48 100.74-21.2 99.59-21.2L99.59-21.2Q98.54-21.2 97.37-20.25 96.19-19.3 95.37-17.45 94.54-15.6 94.54-12.9L94.54-12.9Q94.54-10.25 95.42-8.6 96.29-6.95 97.69-6.23 99.09-5.5 100.64-5.5L100.64-5.5Q102.69-5.5 104.59-6.58 106.49-7.65 107.34-9.55L107.34-9.55 107.84-9.35Q107.84-6.75 106.67-4.93 105.49-3.1 103.64-1.93 101.79-0.75 99.69-0.2 97.59 0.35 95.74 0.35ZM128.74 0.25L128.74 0.25Q126.99 0.25 125.69-0.9 124.39-2.05 124.39-4.65L124.39-4.65Q124.39-4.9 124.39-5.15 124.39-5.4 124.44-5.65L124.44-5.65Q122.94-2.65 121.07-1.23 119.19 0.2 117.29 0.2L117.29 0.2Q115.54 0.2 113.99-1.03 112.44-2.25 111.49-4.65 110.54-7.05 110.54-10.45L110.54-10.45Q110.54-13.95 111.52-16.7 112.49-19.45 114.09-21.35 115.69-23.25 117.59-24.23 119.49-25.2 121.29-25.2L121.29-25.2Q123.29-25.2 124.89-23.98 126.49-22.75 127.09-20.1L127.09-20.1Q127.24-20.95 127.32-21.65 127.39-22.35 127.39-22.6L127.39-22.6Q127.44-23.95 128.77-24.6 130.09-25.25 131.69-25.25L131.69-25.25Q133.09-25.25 134.34-24.7 135.59-24.15 136.04-22.85L136.04-22.85 136.14-22.55Q135.54-21.2 134.94-19.3 134.34-17.4 133.84-15.33 133.34-13.25 133.04-11.28 132.74-9.3 132.74-7.8L132.74-7.8Q132.74-6.15 133.09-5.53 133.44-4.9 133.94-4.9L133.94-4.9Q134.79-4.9 135.49-6.1L135.49-6.1 135.89-5.9Q135.89-4.2 134.79-2.8 133.69-1.4 132.04-0.58 130.39 0.25 128.74 0.25ZM120.59-6.1L120.59-6.1Q121.89-6.1 123.47-8.43 125.04-10.75 126.19-15.1L126.19-15.1Q126.29-15.55 126.39-15.98 126.49-16.4 126.54-16.8L126.54-16.8Q125.74-18.65 124.87-19.43 123.99-20.2 123.14-20.2L123.14-20.2Q121.89-20.2 120.82-18.88 119.74-17.55 119.07-15.55 118.39-13.55 118.39-11.55L118.39-11.55Q118.39-8.8 119.02-7.45 119.64-6.1 120.59-6.1ZM147.24 0.25L147.24 0.25Q144.49 0.25 142.64-2.05 140.79-4.35 140.79-8.35L140.79-8.35Q140.79-10.4 141.24-12.98 141.69-15.55 142.29-18.2 142.89-20.85 143.34-23.18 143.79-25.5 143.79-27.05L143.79-27.05Q143.79-28.15 143.49-28.78 143.19-29.4 142.39-29.4L142.39-29.4Q141.79-29.4 140.99-28.85 140.19-28.3 139.79-26.7L139.79-26.7 139.29-26.9Q139.29-31.2 141.26-33.7 143.24-36.2 146.59-36.2L146.59-36.2Q149.74-36.2 150.96-34.15 152.19-32.1 152.19-29L152.19-29Q152.19-26.7 151.71-24.1 151.24-21.5 150.64-18.93 150.04-16.35 149.56-14.15 149.09-11.95 149.09-10.5L149.09-10.5Q149.09-8.35 150.19-8.35L150.19-8.35Q150.84-8.35 151.94-9.28 153.04-10.2 154.26-11.83 155.49-13.45 156.64-15.53 157.79-17.6 158.59-19.9L158.59-19.9Q158.49-21 158.44-22.03 158.39-23.05 158.39-23.85L158.39-23.85Q158.39-27.85 159.16-30.3 159.94-32.75 161.14-33.9 162.34-35.05 163.59-35.05L163.59-35.05Q165.34-35.05 166.74-33.13 168.14-31.2 168.14-27.9L168.14-27.9Q168.14-25.85 167.39-23.33 166.64-20.8 164.89-17.95L164.89-17.95Q164.74-13.65 165.84-11 166.94-8.35 168.59-8.35L168.59-8.35Q169.64-8.35 170.86-9.43 172.09-10.5 173.14-12.43 174.19-14.35 174.86-16.9 175.54-19.45 175.54-22.35L175.54-22.35Q175.54-24.05 175.31-25.9 175.09-27.75 174.76-29.45 174.44-31.15 174.09-32.25L174.09-32.25Q174.09-33.1 174.81-33.98 175.54-34.85 176.69-35.48 177.84-36.1 179.04-36.1L179.04-36.1Q180.24-36.1 181.34-35.25 182.44-34.4 183.14-32.27 183.84-30.15 183.84-26.25L183.84-26.25Q183.84-20.8 182.44-16.03 181.04-11.25 178.66-7.6 176.29-3.95 173.44-1.88 170.59 0.2 167.64 0.2L167.64 0.2Q165.04 0.2 163.34-1.4 161.64-3 160.69-5.7 159.74-8.4 159.34-11.7L159.34-11.7Q157.54-7.4 155.44-4.78 153.34-2.15 151.24-0.95 149.14 0.25 147.24 0.25ZM196.24 0.35L196.24 0.35Q192.59 0.35 190.19-1.13 187.79-2.6 186.59-5.03 185.39-7.45 185.39-10.25L185.39-10.25Q185.39-12.9 186.41-15.58 187.44-18.25 189.41-20.45 191.39-22.65 194.21-24 197.04-25.35 200.59-25.35L200.59-25.35Q204.99-25.35 207.01-23.38 209.04-21.4 209.04-18.6L209.04-18.6Q209.04-16.2 207.76-14.18 206.49-12.15 204.39-10.93 202.29-9.7 199.79-9.7L199.79-9.7Q198.49-9.7 197.14-10.1 195.79-10.5 194.49-11.35L194.49-11.35Q194.74-8.25 196.29-6.85 197.84-5.45 199.99-5.45L199.99-5.45Q201.49-5.45 202.99-6.03 204.49-6.6 205.76-7.53 207.04-8.45 207.74-9.5L207.74-9.5 208.09-9.25Q208.09-6.65 207.01-4.83 205.94-3 204.19-1.85 202.44-0.7 200.36-0.18 198.29 0.35 196.24 0.35ZM197.39-13.15L197.39-13.15Q198.99-13.15 199.99-14.08 200.99-15 201.49-16.25 201.99-17.5 201.99-18.45L201.99-18.45Q201.99-19.6 201.34-20.38 200.69-21.15 199.54-21.15L199.54-21.15Q198.64-21.15 197.56-20.5 196.49-19.85 195.64-18.28 194.79-16.7 194.54-13.9L194.54-13.9Q196.14-13.15 197.39-13.15ZM224.68 0.2L224.68 0.2Q222.68 0.2 221.03-0.68 219.38-1.55 218.33-3.25L218.33-3.25Q218.28-2.3 217.63-1.5 216.98-0.7 215.18-0.7L215.18-0.7Q213.18-0.7 212.23-1.8 211.28-2.9 211.28-4.7L211.28-4.7Q211.28-5.8 211.58-7.88 211.88-9.95 212.31-12.55 212.73-15.15 213.16-17.95 213.58-20.75 213.88-23.4 214.18-26.05 214.18-28.15L214.18-28.15Q214.18-29.55 214.03-30.6 213.88-31.65 213.48-32.25L213.48-32.25 213.48-32.55Q214.63-33.8 215.88-34.43 217.13-35.05 218.28-35.05L218.28-35.05Q219.98-35.05 221.18-33.7 222.38-32.35 222.38-29.4L222.38-29.4Q222.38-27.95 222.08-25.33 221.78-22.7 221.33-20.1L221.33-20.1Q223.13-22.65 225.16-24 227.18-25.35 229.08-25.35L229.08-25.35Q231.63-25.35 233.43-22.93 235.23-20.5 235.23-15.6L235.23-15.6Q235.23-12.7 234.56-9.88 233.88-7.05 232.53-4.78 231.18-2.5 229.21-1.15 227.23 0.2 224.68 0.2ZM222.18-4.85L222.18-4.85Q223.78-4.85 224.91-6.25 226.03-7.65 226.61-9.83 227.18-12 227.18-14.3L227.18-14.3Q227.18-15.8 226.93-17.18 226.68-18.55 226.18-19.43 225.68-20.3 224.88-20.3L224.88-20.3Q223.48-20.3 221.71-17.03 219.93-13.75 218.93-7.75L218.93-7.75Q219.83-4.85 222.18-4.85Z" opacity="1" transform="matrix(1,0,0,1,0,0)" fill="#223fc0" class="wordmark-text-0" data-fill-palette-color="primary" id="text-0"></path></svg></g></svg></g><g transform="matrix(1,0,0,1,163.310208,76.41236301670301)"><svg viewBox="0 0 232.209792 13.869885787799532" height="13.869885787799532" width="232.209792"><g transform="matrix(1,0,0,1,0,0)"><svg width="232.209792" viewBox="0 -31.98 691.38 41.26" height="13.869885787799532" data-palette-color="#223fc0"><path d="M19.38 0L29.93 0Q29.93-1.07 29.15-1.22L29.15-1.22Q28.91-1.27 28.66-1.27L28.66-1.27 27-1.27 15.82-29.3 14.01-29.3 3.08-1.27 0-1.27 0 0 8.69 0Q8.69-1.07 7.91-1.22L7.91-1.22Q7.67-1.27 7.42-1.27L7.42-1.27 5.03-1.27 8.69-10.74 18.9-10.74 22.56-1.27 19.38-1.27 19.38 0ZM13.77-23.97L18.36-12.16 9.23-12.16 13.77-23.97ZM41.94 8.06L38.52 8.06 38.52-2.05Q41.21 0.29 44.72 0.49L44.72 0.49Q49.07 0.49 52-2.78L52-2.78Q54.83-5.96 54.83-10.84L54.83-10.84Q54.83-16.41 51.76-19.29L51.76-19.29Q49.61-21.24 46.53-21.24L46.53-21.24Q41.79-21.24 39.45-17.48L39.45-17.48Q38.86-16.5 38.47-15.43L38.47-15.43 38.23-20.75 31.2-20.75 31.2-19.53 34.86-19.53 34.86 5.13Q34.86 7.37 33.59 7.81L33.59 7.81Q32.86 8.06 31.2 8.06L31.2 8.06 31.2 9.28 43.16 9.28Q43.16 8.2 42.43 8.11L42.43 8.11Q42.23 8.06 41.94 8.06L41.94 8.06ZM44.97-19.29L44.97-19.29Q49.22-19.29 50.34-13.96L50.34-13.96Q50.68-12.35 50.68-10.35L50.68-10.35Q50.68-3.17 46.82-1.27L46.82-1.27Q45.7-0.73 44.38-0.73L44.38-0.73Q40.62-0.73 39.21-4.69L39.21-4.69Q38.47-6.69 38.47-9.42L38.47-9.42Q38.47-15.77 41.75-18.21L41.75-18.21Q43.21-19.29 44.97-19.29ZM69.18-1.22L69.18-1.22 65.67-1.22 65.67-10.94Q65.67-15.38 68.4-18.07L68.4-18.07Q69.48-19.09 70.21-19.14L70.21-19.14Q71.04-19.14 71.72-17.92L71.72-17.92Q72.5-16.55 73.19-16.36L73.19-16.36Q73.48-16.26 73.77-16.26L73.77-16.26Q75.24-16.26 75.63-17.68L75.63-17.68Q75.73-17.97 75.73-18.26L75.73-18.26Q75.73-20.46 73.48-20.95L73.48-20.95Q72.99-21.04 72.55-21.04L72.55-21.04Q69.62-21.04 67.33-18.55L67.33-18.55Q66.25-17.38 65.62-15.92L65.62-15.92 65.42-20.75 58.34-20.75 58.34-19.53 62.01-19.53 62.01-4.15Q62.01-1.9 60.74-1.46L60.74-1.46Q60-1.22 58.34-1.22L58.34-1.22 58.34 0 70.41 0Q70.41-1.07 69.67-1.17L69.67-1.17Q69.48-1.22 69.18-1.22ZM88.13-20.02L88.13-20.02Q91.55-20.02 92.67-17.14L92.67-17.14Q93.06-16.21 93.06-15.14L93.06-15.14Q93.06-12.7 90.72-12.16L90.72-12.16Q89.49-11.91 87.25-11.96L87.25-11.96 82.07-12.11Q82.32-17.72 85.73-19.43L85.73-19.43Q86.86-20.02 88.13-20.02ZM96.62-4.69L96.62-4.69 95.4-5.13Q93.69-1.42 89.89-0.93L89.89-0.93Q89.4-0.88 88.96-0.88L88.96-0.88Q83.83-0.88 82.51-6.98L82.51-6.98Q82.12-8.69 82.07-10.74L82.07-10.74 87.93-10.64Q93.89-10.55 95.6-11.77L95.6-11.77Q96.92-12.74 96.92-14.55L96.92-14.55Q96.92-17.87 93.55-19.82L93.55-19.82Q91.15-21.24 88.03-21.24L88.03-21.24Q81.93-21.24 79.29-16.16L79.29-16.16Q77.92-13.53 77.92-10.21L77.92-10.21Q77.92-4.15 82.27-1.22L82.27-1.22Q84.86 0.49 88.18 0.49L88.18 0.49Q93.45 0.49 95.94-3.32L95.94-3.32Q96.33-4 96.62-4.69ZM109.61-1.22L109.61-1.22 107.41-1.22 107.41-11.77Q107.56-16.31 110.63-18.31L110.63-18.31Q111.95-19.14 113.32-19.14L113.32-19.14Q116.3-19.14 117.37-16.36L117.37-16.36Q117.81-15.23 117.81-13.82L117.81-13.82 117.81-4.15Q117.81-1.9 116.54-1.46L116.54-1.46Q115.81-1.22 114.15-1.22L114.15-1.22 114.15 0 125.14 0Q125.14-1.07 124.4-1.17L124.4-1.17Q124.21-1.22 123.92-1.22L123.92-1.22 121.47-1.22 121.47-13.33Q121.47-18.21 118.11-20.31L118.11-20.31Q116.54-21.24 114.74-21.24L114.74-21.24Q111.12-21.24 108.78-18.36L108.78-18.36Q107.9-17.24 107.36-15.87L107.36-15.87 107.17-20.75 100.09-20.75 100.09-19.53 103.75-19.53 103.75-4.15Q103.75-1.9 102.48-1.46L102.48-1.46Q101.75-1.22 100.09-1.22L100.09-1.22 100.09 0 110.83 0Q110.83-1.07 110.1-1.17L110.1-1.17Q109.9-1.22 109.61-1.22ZM144.57-5.18L144.96 0 151.94 0Q151.94-1.07 151.21-1.17L151.21-1.17Q151.01-1.22 150.72-1.22L150.72-1.22 148.28-1.22 148.18-31.74 139.88-31.74 139.88-30.52 144.52-30.52 144.52-18.6Q142.13-21.24 138.07-21.24L138.07-21.24Q132.7-21.24 129.97-16.46L129.97-16.46Q128.31-13.53 128.31-9.86L128.31-9.86Q128.31-3.81 132.12-1.03L132.12-1.03Q134.26 0.49 136.85 0.49L136.85 0.49Q142.18 0.39 144.57-5.18L144.57-5.18ZM132.46-10.45L132.46-10.45Q132.46-17.33 136.17-19.38L136.17-19.38Q137.34-20.02 138.76-20.02L138.76-20.02Q142.32-20.02 143.84-16.21L143.84-16.21Q144.67-14.16 144.67-11.38L144.67-11.38Q144.67-5.52 141.74-2.88L141.74-2.88Q140.17-1.46 138.17-1.46L138.17-1.46Q134.17-1.46 132.95-6.35L132.95-6.35Q132.46-8.15 132.46-10.45ZM164.58-1.22L164.58-1.22 162.14-1.22 162.14-20.75 154.57-20.75 154.57-19.53 158.48-19.53 158.48-4.15Q158.48-1.9 156.97-1.42L156.97-1.42Q156.24-1.22 154.57-1.22L154.57-1.22 154.57 0 165.81 0Q165.81-1.07 165.07-1.17L165.07-1.17Q164.83-1.22 164.58-1.22ZM162.73-27.88L162.73-27.88Q162.73-29.59 161.22-30.32L161.22-30.32Q160.63-30.57 160.09-30.57L160.09-30.57Q158.38-30.57 157.65-29L157.65-29Q157.41-28.47 157.41-27.88L157.41-27.88Q157.41-26.07 159.02-25.39L159.02-25.39Q159.56-25.2 160.09-25.2L160.09-25.2Q161.8-25.2 162.49-26.76L162.49-26.76Q162.73-27.29 162.73-27.88ZM181.67-1.27L172.88-1.27 186.12-19.97 186.12-21 169.61-21 169.17-14.65 169.9-14.65 171.08-17.33Q172.15-19.68 174.2-19.73L174.2-19.73 182.06-19.73 168.34-1.07 168.34 0 186.16 0 186.31-7.37 185.63-7.37 185.04-4.69Q184.5-2 182.55-1.42L182.55-1.42Q182.11-1.27 181.67-1.27L181.67-1.27ZM206.96 0.49L206.96 0.49Q210.72 0.49 211.11-4.05L211.11-4.05Q211.16-4.35 211.16-4.59L211.16-4.59 209.89-4.64Q209.55-1.07 207.99-1.03L207.99-1.03Q206.72-1.12 206.67-3.56L206.67-3.56 206.67-13.87Q206.67-20.85 199.69-21.24L199.69-21.24Q199.25-21.24 198.81-21.24L198.81-21.24Q193.34-21.24 191.48-18.7L191.48-18.7Q190.9-17.87 190.9-17.04L190.9-17.04Q190.9-15.53 192.31-15.28L192.31-15.28Q192.56-15.23 192.8-15.23L192.8-15.23Q193.93-15.23 194.46-16.65L194.46-16.65Q195.15-18.46 195.39-18.8L195.39-18.8Q196.32-20.02 198.27-20.02L198.27-20.02Q202.86-19.73 203.01-14.99L203.01-14.99 203.01-11.91Q191.53-11.91 189.87-7.13L189.87-7.13Q189.58-6.2 189.58-5.13L189.58-5.13Q189.58-1.42 192.85-0.05L192.85-0.05Q194.17 0.49 195.63 0.49L195.63 0.49Q199.2 0.49 201.64-1.95L201.64-1.95Q202.52-2.88 202.96-3.91L202.96-3.91Q203.54 0.44 206.96 0.49ZM197.25-1.46L197.25-1.46Q194.27-1.46 193.58-4.44L193.58-4.44Q193.44-5.13 193.44-5.96L193.44-5.96Q193.44-9.23 197.2-10.11L197.2-10.11Q199.2-10.55 203.01-10.6L203.01-10.6 203.01-6.69Q202.27-3.32 199.44-1.95L199.44-1.95Q198.32-1.46 197.25-1.46ZM229.62-5.18L230.01 0 236.99 0Q236.99-1.07 236.26-1.17L236.26-1.17Q236.06-1.22 235.77-1.22L235.77-1.22 233.33-1.22 233.23-31.74 224.93-31.74 224.93-30.52 229.57-30.52 229.57-18.6Q227.17-21.24 223.12-21.24L223.12-21.24Q217.75-21.24 215.02-16.46L215.02-16.46Q213.36-13.53 213.36-9.86L213.36-9.86Q213.36-3.81 217.17-1.03L217.17-1.03Q219.31 0.49 221.9 0.49L221.9 0.49Q227.22 0.39 229.62-5.18L229.62-5.18ZM217.51-10.45L217.51-10.45Q217.51-17.33 221.22-19.38L221.22-19.38Q222.39-20.02 223.81-20.02L223.81-20.02Q227.37-20.02 228.88-16.21L228.88-16.21Q229.71-14.16 229.71-11.38L229.71-11.38Q229.71-5.52 226.78-2.88L226.78-2.88Q225.22-1.46 223.22-1.46L223.22-1.46Q219.22-1.46 218-6.35L218-6.35Q217.51-8.15 217.51-10.45ZM244.26-10.4L244.26-10.4Q244.26-17.97 248.41-19.63L248.41-19.63Q249.49-20.02 250.66-20.02L250.66-20.02Q256.08-20.02 256.96-13.18L256.96-13.18Q257.1-12.01 257.1-10.6L257.1-10.6Q257.1-2.39 252.61-0.98L252.61-0.98Q251.73-0.73 250.81-0.73L250.81-0.73Q245.87-0.73 244.6-6.59L244.6-6.59Q244.26-8.3 244.26-10.4ZM250.81-21.24L250.81-21.24Q246.12-21.24 242.99-18.02L242.99-18.02Q240.11-15.04 240.11-10.6L240.11-10.6Q240.11-4.44 244.6-1.37L244.6-1.37Q247.34 0.49 250.66 0.49L250.66 0.49Q255.35 0.49 258.42-2.83L258.42-2.83Q261.25-5.86 261.25-10.4L261.25-10.4Q261.25-16.55 256.71-19.53L256.71-19.53Q254.03-21.24 250.81-21.24ZM290.06-29.79L290.06-29.79Q284.2-29.79 280-25.93L280-25.93Q275.41-21.68 275.41-14.84L275.41-14.84Q275.41-6.93 280.83-2.64L280.83-2.64Q284.78 0.49 289.91 0.49L289.91 0.49Q295.67 0.49 299.82-3.42L299.82-3.42Q304.46-7.76 304.46-14.65L304.46-14.65Q304.46-22.71 298.85-26.9L298.85-26.9Q295.04-29.79 290.06-29.79ZM290.06-0.88L290.06-0.88Q282.98-0.88 280.98-8.45L280.98-8.45Q280.29-11.13 280.29-14.65L280.29-14.65Q280.29-26.27 287.32-28.13L287.32-28.13Q288.54-28.42 289.91-28.42L289.91-28.42Q299.53-28.32 299.58-14.84L299.58-14.84Q299.58-4.2 293.67-1.61L293.67-1.61Q292.01-0.88 290.06-0.88ZM318.13-1.22L318.13-1.22 315.93-1.22 315.93-11.77Q316.08-16.31 319.16-18.31L319.16-18.31Q320.48-19.14 321.84-19.14L321.84-19.14Q324.82-19.14 325.9-16.36L325.9-16.36Q326.33-15.23 326.33-13.82L326.33-13.82 326.33-4.15Q326.33-1.9 325.07-1.46L325.07-1.46Q324.33-1.22 322.67-1.22L322.67-1.22 322.67 0 333.66 0Q333.66-1.07 332.93-1.17L332.93-1.17Q332.73-1.22 332.44-1.22L332.44-1.22 330-1.22 330-13.33Q330-18.21 326.63-20.31L326.63-20.31Q325.07-21.24 323.26-21.24L323.26-21.24Q319.65-21.24 317.3-18.36L317.3-18.36Q316.42-17.24 315.89-15.87L315.89-15.87 315.69-20.75 308.61-20.75 308.61-19.53 312.27-19.53 312.27-4.15Q312.27-1.9 311-1.46L311-1.46Q310.27-1.22 308.61-1.22L308.61-1.22 308.61 0 319.35 0Q319.35-1.07 318.62-1.17L318.62-1.17Q318.42-1.22 318.13-1.22ZM346.45-1.22L346.45-1.22 343.81-1.22 343.81-31.74 336.49-31.74 336.49-30.52 340.15-30.52 340.15-4.15Q340.15-1.9 338.88-1.46L338.88-1.46Q338.15-1.22 336.49-1.22L336.49-1.22 336.49 0 347.67 0Q347.67-1.07 346.94-1.17L346.94-1.17Q346.74-1.22 346.45-1.22ZM360.46-1.22L360.46-1.22 358.02-1.22 358.02-20.75 350.45-20.75 350.45-19.53 354.36-19.53 354.36-4.15Q354.36-1.9 352.84-1.42L352.84-1.42Q352.11-1.22 350.45-1.22L350.45-1.22 350.45 0 361.68 0Q361.68-1.07 360.95-1.17L360.95-1.17Q360.7-1.22 360.46-1.22ZM358.61-27.88L358.61-27.88Q358.61-29.59 357.09-30.32L357.09-30.32Q356.51-30.57 355.97-30.57L355.97-30.57Q354.26-30.57 353.53-29L353.53-29Q353.28-28.47 353.28-27.88L353.28-27.88Q353.28-26.07 354.89-25.39L354.89-25.39Q355.43-25.2 355.97-25.2L355.97-25.2Q357.68-25.2 358.36-26.76L358.36-26.76Q358.61-27.29 358.61-27.88ZM374.13-1.22L374.13-1.22 371.93-1.22 371.93-11.77Q372.08-16.31 375.16-18.31L375.16-18.31Q376.47-19.14 377.84-19.14L377.84-19.14Q380.82-19.14 381.89-16.36L381.89-16.36Q382.33-15.23 382.33-13.82L382.33-13.82 382.33-4.15Q382.33-1.9 381.06-1.46L381.06-1.46Q380.33-1.22 378.67-1.22L378.67-1.22 378.67 0 389.66 0Q389.66-1.07 388.92-1.17L388.92-1.17Q388.73-1.22 388.44-1.22L388.44-1.22 386-1.22 386-13.33Q386-18.21 382.63-20.31L382.63-20.31Q381.06-21.24 379.26-21.24L379.26-21.24Q375.64-21.24 373.3-18.36L373.3-18.36Q372.42-17.24 371.88-15.87L371.88-15.87 371.69-20.75 364.61-20.75 364.61-19.53 368.27-19.53 368.27-4.15Q368.27-1.9 367-1.46L367-1.46Q366.27-1.22 364.61-1.22L364.61-1.22 364.61 0 375.35 0Q375.35-1.07 374.62-1.17L374.62-1.17Q374.42-1.22 374.13-1.22ZM403.03-20.02L403.03-20.02Q406.45-20.02 407.57-17.14L407.57-17.14Q407.97-16.21 407.97-15.14L407.97-15.14Q407.97-12.7 405.62-12.16L405.62-12.16Q404.4-11.91 402.15-11.96L402.15-11.96 396.98-12.11Q397.22-17.72 400.64-19.43L400.64-19.43Q401.76-20.02 403.03-20.02ZM411.53-4.69L411.53-4.69 410.31-5.13Q408.6-1.42 404.79-0.93L404.79-0.93Q404.3-0.88 403.86-0.88L403.86-0.88Q398.74-0.88 397.42-6.98L397.42-6.98Q397.03-8.69 396.98-10.74L396.98-10.74 402.84-10.64Q408.8-10.55 410.5-11.77L410.5-11.77Q411.82-12.74 411.82-14.55L411.82-14.55Q411.82-17.87 408.45-19.82L408.45-19.82Q406.06-21.24 402.94-21.24L402.94-21.24Q396.83-21.24 394.2-16.16L394.2-16.16Q392.83-13.53 392.83-10.21L392.83-10.21Q392.83-4.15 397.17-1.22L397.17-1.22Q399.76 0.49 403.08 0.49L403.08 0.49Q408.36 0.49 410.85-3.32L410.85-3.32Q411.24-4 411.53-4.69ZM421-1.81L421-1.81Q421-4.44 419.05-4.93L419.05-4.93Q418.66-5.03 418.31-5.03L418.31-5.03Q416.75-5.03 416.17-3.56L416.17-3.56Q415.97-3.08 415.97-2.59L415.97-2.59Q415.97-1.03 417.53-0.44L417.53-0.44Q417.78-0.39 417.92-0.34L417.92-0.34Q419-0.05 419.05 0.49L419.05 0.49Q419 1.81 416.9 4L416.9 4 417.92 4.74Q420.9 1.51 421-1.81ZM456.2-7.67L456.2-7.67Q456.2-12.01 451.51-14.65L451.51-14.65Q450.58-15.14 445.8-17.24L445.8-17.24Q441.45-19.09 440.33-21.04L440.33-21.04Q439.74-22.12 439.74-23.34L439.74-23.34Q439.74-26.61 442.92-27.88L442.92-27.88Q444.29-28.42 445.95-28.42L445.95-28.42Q450.05-28.42 452.2-25.63L452.2-25.63Q453.61-23.73 453.56-21L453.56-21 455.03-21 455.03-29.54Q453.86-29.54 453.66-28.81L453.66-28.81Q453.56-28.47 453.56-27.88L453.56-27.88Q450.1-29.79 445.75-29.79L445.75-29.79Q440.48-29.79 437.55-26.86L437.55-26.86Q435.59-24.8 435.59-22.07L435.59-22.07Q435.59-17.97 440.18-15.38L440.18-15.38Q441.01-14.94 445.75-12.89L445.75-12.89Q450.15-10.94 451.32-8.94L451.32-8.94Q451.95-7.81 451.95-6.49L451.95-6.49Q451.95-3.08 448.63-1.56L448.63-1.56Q447.07-0.88 445.16-0.88L445.16-0.88Q437.69-0.98 436.86-10.01L436.86-10.01 435.4-10.01 435.4 0.1Q436.57 0.1 436.77-0.59L436.77-0.59Q436.86-0.98 436.86-2L436.86-2Q440.62 0.49 445.41 0.49L445.41 0.49Q451.02 0.49 454.1-2.54L454.1-2.54Q456.2-4.69 456.2-7.67ZM470.11-1.22L470.11-1.22 467.67-1.22 467.67-20.75 460.1-20.75 460.1-19.53 464.01-19.53 464.01-4.15Q464.01-1.9 462.5-1.42L462.5-1.42Q461.76-1.22 460.1-1.22L460.1-1.22 460.1 0 471.33 0Q471.33-1.07 470.6-1.17L470.6-1.17Q470.36-1.22 470.11-1.22ZM468.26-27.88L468.26-27.88Q468.26-29.59 466.74-30.32L466.74-30.32Q466.16-30.57 465.62-30.57L465.62-30.57Q463.91-30.57 463.18-29L463.18-29Q462.94-28.47 462.94-27.88L462.94-27.88Q462.94-26.07 464.55-25.39L464.55-25.39Q465.08-25.2 465.62-25.2L465.62-25.2Q467.33-25.2 468.01-26.76L468.01-26.76Q468.26-27.29 468.26-27.88ZM483.78-1.22L483.78-1.22 481.59-1.22 481.59-11.77Q481.73-16.06 484.56-18.16L484.56-18.16Q485.88-19.14 487.2-19.14L487.2-19.14Q489.64-19.14 490.57-16.46L490.57-16.46Q490.96-15.28 490.96-13.82L490.96-13.82 490.96-4.15Q490.96-1.9 489.89-1.46L489.89-1.46Q489.2-1.22 487.54-1.22L487.54-1.22 487.54 0 498.04 0Q498.04-1.07 497.31-1.17L497.31-1.17Q497.11-1.22 496.82-1.22L496.82-1.22 494.62-1.22 494.62-13.33 494.62-13.72Q495.4-17.29 498.09-18.7L498.09-18.7Q499.11-19.19 500.04-19.19L500.04-19.19Q502.53-19.19 503.56-16.6L503.56-16.6Q504.05-15.38 504.05-13.82L504.05-13.82 504.05-4.15Q504.05-1.9 502.97-1.46L502.97-1.46Q502.29-1.22 500.63-1.22L500.63-1.22 500.63 0 511.42 0Q511.42-1.07 510.69-1.17L510.69-1.17Q510.49-1.22 510.2-1.22L510.2-1.22 507.71-1.22 507.71-13.33Q507.71-18.36 504.44-20.36L504.44-20.36Q502.97-21.24 501.26-21.24L501.26-21.24Q497.55-21.24 495.31-17.77L495.31-17.77Q494.72-16.89 494.33-15.92L494.33-15.92Q493.45-19.78 490.47-20.9L490.47-20.9Q489.59-21.24 488.67-21.24L488.67-21.24Q485.15-21.24 482.86-18.26L482.86-18.26Q482.03-17.19 481.54-15.87L481.54-15.87 481.34-20.75 474.26-20.75 474.26-19.53 477.92-19.53 477.92-4.15Q477.92-1.9 476.65-1.46L476.65-1.46Q475.92-1.22 474.26-1.22L474.26-1.22 474.26 0 485 0Q485-1.03 484.27-1.17L484.27-1.17Q484.03-1.22 483.78-1.22ZM524.65 8.06L521.23 8.06 521.23-2.05Q523.92 0.29 527.43 0.49L527.43 0.49Q531.78 0.49 534.71-2.78L534.71-2.78Q537.54-5.96 537.54-10.84L537.54-10.84Q537.54-16.41 534.46-19.29L534.46-19.29Q532.32-21.24 529.24-21.24L529.24-21.24Q524.5-21.24 522.16-17.48L522.16-17.48Q521.57-16.5 521.18-15.43L521.18-15.43 520.94-20.75 513.91-20.75 513.91-19.53 517.57-19.53 517.57 5.13Q517.57 7.37 516.3 7.81L516.3 7.81Q515.57 8.06 513.91 8.06L513.91 8.06 513.91 9.28 525.87 9.28Q525.87 8.2 525.14 8.11L525.14 8.11Q524.94 8.06 524.65 8.06L524.65 8.06ZM527.68-19.29L527.68-19.29Q531.92-19.29 533.05-13.96L533.05-13.96Q533.39-12.35 533.39-10.35L533.39-10.35Q533.39-3.17 529.53-1.27L529.53-1.27Q528.41-0.73 527.09-0.73L527.09-0.73Q523.33-0.73 521.92-4.69L521.92-4.69Q521.18-6.69 521.18-9.42L521.18-9.42Q521.18-15.77 524.45-18.21L524.45-18.21Q525.92-19.29 527.68-19.29ZM551.06-1.22L551.06-1.22 548.43-1.22 548.43-31.74 541.1-31.74 541.1-30.52 544.76-30.52 544.76-4.15Q544.76-1.9 543.49-1.46L543.49-1.46Q542.76-1.22 541.1-1.22L541.1-1.22 541.1 0 552.28 0Q552.28-1.07 551.55-1.17L551.55-1.17Q551.36-1.22 551.06-1.22ZM565.07-1.22L565.07-1.22 562.63-1.22 562.63-20.75 555.06-20.75 555.06-19.53 558.97-19.53 558.97-4.15Q558.97-1.9 557.46-1.42L557.46-1.42Q556.72-1.22 555.06-1.22L555.06-1.22 555.06 0 566.29 0Q566.29-1.07 565.56-1.17L565.56-1.17Q565.32-1.22 565.07-1.22ZM563.22-27.88L563.22-27.88Q563.22-29.59 561.71-30.32L561.71-30.32Q561.12-30.57 560.58-30.57L560.58-30.57Q558.87-30.57 558.14-29L558.14-29Q557.9-28.47 557.9-27.88L557.9-27.88Q557.9-26.07 559.51-25.39L559.51-25.39Q560.04-25.2 560.58-25.2L560.58-25.2Q562.29-25.2 562.97-26.76L562.97-26.76Q563.22-27.29 563.22-27.88ZM580.01-1.22L580.01-1.22 576.6-1.22 576.6-19.53 582.21-19.53 582.21-20.75 576.6-20.75 576.6-21.04Q576.6-29.39 579.09-30.52L579.09-30.52Q579.62-30.76 580.26-30.76L580.26-30.76Q581.77-30.76 582.8-28.96L582.8-28.96Q583.68-27.39 584.07-27.1L584.07-27.1Q584.46-26.81 584.94-26.81L584.94-26.81Q586.56-26.81 586.85-28.17L586.85-28.17Q586.9-28.42 586.9-28.61L586.9-28.61Q586.9-30.42 584.46-31.45L584.46-31.45Q583.04-31.98 581.28-31.98L581.28-31.98Q576.69-31.98 574.45-28.17L574.45-28.17Q572.93-25.54 572.93-21.53L572.93-21.53 572.93-20.75 569.52-20.75 569.52-19.53 572.93-19.53 572.93-4.15Q572.93-1.9 571.66-1.46L571.66-1.46Q570.93-1.22 569.27-1.22L569.27-1.22 569.27 0 581.23 0Q581.23-1.07 580.5-1.17L580.5-1.17Q580.31-1.22 580.01-1.22ZM594.07-1.22L594.07-1.22 591.63-1.22 591.63-20.75 584.06-20.75 584.06-19.53 587.97-19.53 587.97-4.15Q587.97-1.9 586.46-1.42L586.46-1.42Q585.72-1.22 584.06-1.22L584.06-1.22 584.06 0 595.29 0Q595.29-1.07 594.56-1.17L594.56-1.17Q594.32-1.22 594.07-1.22ZM592.22-27.88L592.22-27.88Q592.22-29.59 590.7-30.32L590.7-30.32Q590.12-30.57 589.58-30.57L589.58-30.57Q587.87-30.57 587.14-29L587.14-29Q586.9-28.47 586.9-27.88L586.9-27.88Q586.9-26.07 588.51-25.39L588.51-25.39Q589.04-25.2 589.58-25.2L589.58-25.2Q591.29-25.2 591.97-26.76L591.97-26.76Q592.22-27.29 592.22-27.88ZM598.71-10.16L598.71-10.16Q598.71-4.25 603.05-1.32L603.05-1.32Q605.74 0.49 609.16 0.49L609.16 0.49Q614.24 0.49 616.82-3.08L616.82-3.08Q617.41-3.91 617.75-4.74L617.75-4.74 616.48-5.18Q614.68-1.32 610.53-0.93L610.53-0.93Q610.14-0.88 609.74-0.88L609.74-0.88Q606.28-0.88 604.32-4.35L604.32-4.35Q602.86-6.98 602.86-10.6L602.86-10.6Q602.86-16.99 606.23-19.14L606.23-19.14Q607.64-20.02 609.35-20.02L609.35-20.02Q611.99-20.02 612.53-17.97L612.53-17.97Q612.63-17.58 612.77-16.75L612.77-16.75Q613.06-14.79 613.85-14.31L613.85-14.31Q614.33-14.06 614.92-14.01L614.92-14.01Q616.58-13.92 617.02-15.38L617.02-15.38Q617.12-15.72 617.12-16.02L617.12-16.02Q617.12-18.51 613.94-20.12L613.94-20.12Q611.7-21.24 609.06-21.24L609.06-21.24Q602.52-21.24 599.93-15.92L599.93-15.92Q598.71-13.38 598.71-10.16ZM637.09 0.49L637.09 0.49Q640.85 0.49 641.24-4.05L641.24-4.05Q641.28-4.35 641.28-4.59L641.28-4.59 640.02-4.64Q639.67-1.07 638.11-1.03L638.11-1.03Q636.84-1.12 636.79-3.56L636.79-3.56 636.79-13.87Q636.79-20.85 629.81-21.24L629.81-21.24Q629.37-21.24 628.93-21.24L628.93-21.24Q623.46-21.24 621.61-18.7L621.61-18.7Q621.02-17.87 621.02-17.04L621.02-17.04Q621.02-15.53 622.44-15.28L622.44-15.28Q622.68-15.23 622.93-15.23L622.93-15.23Q624.05-15.23 624.59-16.65L624.59-16.65Q625.27-18.46 625.51-18.8L625.51-18.8Q626.44-20.02 628.39-20.02L628.39-20.02Q632.98-19.73 633.13-14.99L633.13-14.99 633.13-11.91Q621.66-11.91 620-7.13L620-7.13Q619.7-6.2 619.7-5.13L619.7-5.13Q619.7-1.42 622.97-0.05L622.97-0.05Q624.29 0.49 625.76 0.49L625.76 0.49Q629.32 0.49 631.76-1.95L631.76-1.95Q632.64-2.88 633.08-3.91L633.08-3.91Q633.67 0.44 637.09 0.49ZM627.37-1.46L627.37-1.46Q624.39-1.46 623.71-4.44L623.71-4.44Q623.56-5.13 623.56-5.96L623.56-5.96Q623.56-9.23 627.32-10.11L627.32-10.11Q629.32-10.55 633.13-10.6L633.13-10.6 633.13-6.69Q632.4-3.32 629.57-1.95L629.57-1.95Q628.44-1.46 627.37-1.46ZM659.74-5.18L660.13 0 667.11 0Q667.11-1.07 666.38-1.17L666.38-1.17Q666.18-1.22 665.89-1.22L665.89-1.22 663.45-1.22 663.35-31.74 655.05-31.74 655.05-30.52 659.69-30.52 659.69-18.6Q657.3-21.24 653.25-21.24L653.25-21.24Q647.87-21.24 645.14-16.46L645.14-16.46Q643.48-13.53 643.48-9.86L643.48-9.86Q643.48-3.81 647.29-1.03L647.29-1.03Q649.44 0.49 652.02 0.49L652.02 0.49Q657.35 0.39 659.74-5.18L659.74-5.18ZM647.63-10.45L647.63-10.45Q647.63-17.33 651.34-19.38L651.34-19.38Q652.51-20.02 653.93-20.02L653.93-20.02Q657.49-20.02 659.01-16.21L659.01-16.21Q659.84-14.16 659.84-11.38L659.84-11.38Q659.84-5.52 656.91-2.88L656.91-2.88Q655.34-1.46 653.34-1.46L653.34-1.46Q649.34-1.46 648.12-6.35L648.12-6.35Q647.63-8.15 647.63-10.45ZM674.39-10.4L674.39-10.4Q674.39-17.97 678.54-19.63L678.54-19.63Q679.61-20.02 680.78-20.02L680.78-20.02Q686.2-20.02 687.08-13.18L687.08-13.18Q687.23-12.01 687.23-10.6L687.23-10.6Q687.23-2.39 682.73-0.98L682.73-0.98Q681.86-0.73 680.93-0.73L680.93-0.73Q676-0.73 674.73-6.59L674.73-6.59Q674.39-8.3 674.39-10.4ZM680.93-21.24L680.93-21.24Q676.24-21.24 673.12-18.02L673.12-18.02Q670.23-15.04 670.23-10.6L670.23-10.6Q670.23-4.44 674.73-1.37L674.73-1.37Q677.46 0.49 680.78 0.49L680.78 0.49Q685.47 0.49 688.55-2.83L688.55-2.83Q691.38-5.86 691.38-10.4L691.38-10.4Q691.38-16.55 686.84-19.53L686.84-19.53Q684.15-21.24 680.93-21.24Z" opacity="1" transform="matrix(1,0,0,1,0,0)" fill="#223fc0" class="slogan-text-1" data-fill-palette-color="secondary" id="text-1"></path></svg></g></svg></g></svg></g></svg></g><g transform="matrix(1,0,0,1,432.00465994714557,0)"><svg viewBox="0 0 244.43135999999998 244.43135999999998" height="244.43135999999998" width="244.43135999999998"><g><svg viewBox="0 0 244.43135999999998 244.43135999999998" height="244.43135999999998" width="244.43135999999998"><g transform="matrix(1,0,0,1,64.6026559364499,74.53392865463059)"><svg viewBox="0 0 115.22604812710016 95.3635026907388" height="95.3635026907388" width="115.22604812710016"><g><svg xmlns="http://www.w3.org/2000/svg" xmlns:xlink="http://www.w3.org/1999/xlink" version="1.1" x="0" y="0" viewBox="3.958 11.55 88.08500000000001 72.901" enable-background="new 0 0 96 96" xml:space="preserve" height="95.3635026907388" width="115.22604812710016" class="icon-dxe-0" data-fill-palette-color="accent" id="dxe-0"><g fill="#223fc0" data-fill-palette-color="accent"><path d="M5.096 64.445H43.246V73.978H32.333C31.705 73.978 31.195 74.488 31.195 75.117V83.312C31.195 83.94 31.705 84.451 32.333 84.451H63.668A1.14 1.14 0 0 0 64.806 83.312V75.117C64.806 74.488 64.296 73.978 63.668 73.978H52.754V64.445H90.905A1.14 1.14 0 0 0 92.043 63.306V12.688C92.043 12.059 91.533 11.55 90.905 11.55H5.096C4.468 11.55 3.958 12.059 3.958 12.688V63.306C3.958 63.934 4.468 64.445 5.096 64.445M62.53 76.255V82.173H33.471V76.255zM50.478 73.978H45.523V64.445H50.478zM6.234 13.827H89.766V62.167H6.234z" fill="#223fc0" data-fill-palette-color="accent"></path><path d="M48.461 53.541A0.8 0.8 0 0 0 49.059 53.815C49.246 53.815 49.429 53.748 49.572 53.625L52.881 50.783A0.786 0.786 0 0 0 52.965 49.673L50.558 46.87 52.465 45.232A0.787 0.787 0 0 0 52.011 43.848L44.28 43.26A0.79 0.79 0 0 0 43.435 43.986L42.847 51.716A0.786 0.786 0 0 0 44.146 52.374L46.053 50.736zM44.564 49.94L44.947 44.892 49.996 45.275 48.934 46.187A0.787 0.787 0 0 0 48.849 47.298L51.256 50.101 49.143 51.915 46.737 49.112A0.793 0.793 0 0 0 45.625 49.027z" fill="#223fc0" data-fill-palette-color="accent"></path><path d="M48 40.505C50.622 40.505 52.754 38.372 52.754 35.751S50.622 30.998 48 30.998 43.247 33.131 43.247 35.752 45.379 40.505 48 40.505M48 33.274A2.48 2.48 0 0 1 50.478 35.752 2.478 2.478 0 0 1 45.523 35.751 2.48 2.48 0 0 1 48 33.274" fill="#223fc0" data-fill-palette-color="accent"></path><path d="M42.055 22.966A0.79 0.79 0 0 0 41.267 22.178C33.783 22.178 27.694 28.267 27.694 35.751S33.783 49.323 41.267 49.323A0.787 0.787 0 1 0 41.267 47.748C34.652 47.748 29.27 42.366 29.27 35.751 29.27 29.137 34.651 23.754 41.267 23.754A0.787 0.787 0 0 0 42.055 22.966" fill="#223fc0" data-fill-palette-color="accent"></path><path d="M40.951 30.463A0.788 0.788 0 0 0 40.951 28.887C37.166 28.887 34.086 31.966 34.086 35.751S37.166 42.615 40.951 42.615A0.788 0.788 0 0 0 40.951 41.039 5.295 5.295 0 0 1 35.662 35.751 5.295 5.295 0 0 1 40.951 30.463" fill="#223fc0" data-fill-palette-color="accent"></path><path d="M53.946 48.536C53.946 48.973 54.299 49.324 54.734 49.324 62.218 49.324 68.307 43.236 68.307 35.752S62.219 22.179 54.734 22.179A0.788 0.788 0 0 0 54.734 23.755C61.349 23.755 66.731 29.138 66.731 35.752 66.731 42.367 61.349 47.749 54.734 47.749A0.787 0.787 0 0 0 53.946 48.536" fill="#223fc0" data-fill-palette-color="accent"></path><path d="M55.051 41.04A0.788 0.788 0 0 0 55.051 42.616C58.836 42.616 61.915 39.537 61.915 35.752S58.836 28.888 55.051 28.888A0.788 0.788 0 1 0 55.051 30.464 5.294 5.294 0 0 1 60.339 35.752 5.295 5.295 0 0 1 55.051 41.04" fill="#223fc0" data-fill-palette-color="accent"></path></g></svg></g></svg></g><g id="text-0"><path d="M26.008 87.328v0c-0.587 1.694-1.416 2.978-2.487 3.853-1.071 0.874-2.265 1.395-3.583 1.56-1.318 0.166-2.626 0.024-3.925-0.426v0c-1.228-0.426-2.381-1.09-3.459-1.992-1.075-0.909-1.966-1.996-2.671-3.262-0.703-1.272-1.141-2.673-1.313-4.202-0.172-1.53 0.027-3.119 0.599-4.768v0c0.708-2.043 1.684-3.374 2.926-3.993 1.243-0.619 2.514-0.704 3.814-0.253v0c1.112 0.385 2.035 1.035 2.768 1.948 0.738 0.922 1.223 1.966 1.455 3.133 0.231 1.173 0.144 2.342-0.259 3.506v0c-0.208 0.601-0.515 1.183-0.92 1.745-0.405 0.562-0.909 1.075-1.511 1.54v0c1.482 0.383 2.671 0.328 3.566-0.165 0.902-0.491 1.526-1.238 1.873-2.24v0c0.24-0.692 0.345-1.434 0.316-2.226-0.023-0.79-0.146-1.553-0.369-2.29-0.227-0.745-0.527-1.363-0.9-1.854v0l0.259-0.182c1.209 0.419 2.151 1.024 2.825 1.816 0.674 0.791 1.135 1.686 1.383 2.684 0.256 0.994 0.337 2.014 0.242 3.061-0.088 1.048-0.298 2.051-0.629 3.007zM16.89 83.266v0c0.258-0.743 0.254-1.422-0.011-2.035-0.274-0.609-0.662-1.131-1.163-1.565-0.495-0.432-0.965-0.726-1.411-0.881v0c-0.53-0.184-1.028-0.19-1.493-0.017-0.461 0.181-0.784 0.539-0.97 1.075v0c-0.143 0.414-0.153 0.921-0.028 1.522 0.129 0.61 0.49 1.238 1.084 1.886 0.594 0.648 1.52 1.255 2.779 1.822v0c0.607-0.622 1.011-1.225 1.213-1.807z" fill="#223fc0" data-fill-palette-color="accent"></path><path d="M40.07 60.521v0c-0.547 0.693-1.299 1.154-2.256 1.384-0.962 0.226-2.054 0.162-3.274-0.191-1.226-0.357-2.494-1.053-3.805-2.086v0c-1.348-1.064-2.401-2.204-3.159-3.42-0.758-1.226-1.26-2.445-1.505-3.659-0.245-1.213-0.269-2.343-0.071-3.39 0.198-1.046 0.579-1.927 1.142-2.641v0c0.623-0.79 1.425-1.298 2.407-1.526 0.976-0.232 2.076-0.053 3.301 0.538v0c-0.826-0.93-1.631-1.805-2.414-2.623-0.774-0.82-1.499-1.497-2.176-2.031v0c-0.886-0.699-1.622-1.092-2.207-1.179v0l-0.178-0.14c-0.152-0.835-0.139-1.613 0.039-2.336 0.178-0.723 0.455-1.323 0.833-1.8v0c0.504-0.639 1.129-1.022 1.874-1.15 0.744-0.136 1.484 0.086 2.219 0.667v0c0.403 0.318 0.946 0.855 1.63 1.612 0.684 0.757 1.457 1.633 2.32 2.628 0.857 0.99 1.743 2.011 2.656 3.063 0.908 1.047 1.795 2.022 2.661 2.923 0.866 0.901 1.657 1.634 2.371 2.197v0c0.596 0.47 1.125 0.783 1.587 0.939 0.452 0.156 0.792 0.089 1.021-0.201v0c0.165-0.209 0.262-0.482 0.291-0.816 0.033-0.34-0.018-0.624-0.152-0.852v0l0.304-0.087c0.639 0.504 1.066 1.168 1.28 1.99 0.204 0.824 0.229 1.671 0.073 2.542-0.16 0.876-0.498 1.642-1.015 2.297v0c-0.564 0.714-1.205 1.124-1.923 1.228-0.724 0.1-1.465-0.005-2.222-0.315-0.753-0.315-1.466-0.721-2.138-1.217v0c0.921 1.694 1.388 3.195 1.4 4.505 0.013 1.309-0.292 2.358-0.914 3.147zM37.921 55.689v0c0.398-0.505 0.39-1.422-0.025-2.752-0.42-1.334-1.316-2.916-2.686-4.747v0l-0.761-0.875c-0.956-0.257-1.726-0.325-2.311-0.203-0.575 0.121-0.992 0.346-1.251 0.674v0c-0.381 0.483-0.476 1.145-0.285 1.985 0.197 0.844 0.605 1.719 1.224 2.625 0.609 0.907 1.367 1.719 2.275 2.435v0c0.865 0.682 1.644 1.092 2.337 1.23 0.688 0.133 1.182 0.009 1.483-0.372z" fill="#223fc0" data-fill-palette-color="accent"></path><path d="M65.034 36.52v0c-0.935 0.582-1.961 0.688-3.077 0.319-1.114-0.379-2.074-1.216-2.88-2.512v0c-0.441-0.709-0.833-1.52-1.177-2.435-0.338-0.918-0.648-1.793-0.931-2.623v0c-0.195-0.636-0.392-1.219-0.592-1.748-0.196-0.523-0.386-0.932-0.57-1.228v0c-0.231-0.372-0.478-0.593-0.74-0.664-0.262-0.071-0.497-0.041-0.706 0.089v0c-0.203 0.127-0.366 0.325-0.489 0.594-0.126 0.264-0.168 0.572-0.126 0.924v0l-0.303 0.056c-0.531-0.854-0.779-1.711-0.742-2.572 0.042-0.864 0.288-1.654 0.738-2.369 0.455-0.719 1.014-1.284 1.676-1.696v0c0.546-0.34 1.138-0.555 1.775-0.645 0.633-0.096 1.255-0.016 1.866 0.241 0.605 0.26 1.123 0.736 1.553 1.428v0c0.257 0.412 0.512 0.946 0.767 1.601 0.245 0.653 0.49 1.339 0.736 2.057v0c0.256 0.735 0.52 1.477 0.792 2.226 0.275 0.74 0.568 1.359 0.879 1.859v0c0.286 0.459 0.591 0.788 0.917 0.989 0.326 0.2 0.634 0.21 0.925 0.029v0c0.546-0.34 0.845-1.219 0.897-2.637 0.058-1.422-0.23-3.109-0.863-5.06v0c-0.128-0.388-0.276-0.787-0.443-1.199-0.171-0.417-0.379-0.824-0.626-1.218v0c-0.195-0.314-0.412-0.618-0.652-0.912-0.249-0.296-0.519-0.588-0.809-0.874v0l-0.136-0.218c-0.014-0.773 0.153-1.469 0.501-2.089 0.354-0.623 0.801-1.103 1.342-1.439v0c0.732-0.455 1.544-0.614 2.435-0.476 0.898 0.135 1.645 0.681 2.241 1.64v0c0.351 0.564 0.653 1.282 0.906 2.156 0.25 0.868 0.496 1.775 0.738 2.72v0c0.231 0.928 0.477 1.835 0.737 2.72 0.257 0.88 0.566 1.61 0.928 2.191v0c0.531 0.854 1.099 1.093 1.703 0.717v0c0.168-0.105 0.343-0.278 0.524-0.519 0.18-0.241 0.285-0.572 0.313-0.992v0l0.256-0.075c0.466 0.749 0.675 1.538 0.626 2.367-0.049 0.828-0.286 1.592-0.713 2.292-0.436 0.698-0.988 1.255-1.656 1.671v0c-0.854 0.531-1.814 0.698-2.881 0.499-1.064-0.208-2.037-1.021-2.919-2.438v0l-0.038-0.061c0.047 1.993-0.193 3.589-0.72 4.787-0.531 1.193-1.192 2.035-1.982 2.527z" fill="#223fc0" data-fill-palette-color="accent"></path><path d="M99.478 21.62v0c-1.575 0.357-2.991 0.299-4.249-0.174-1.249-0.468-2.283-1.219-3.099-2.255-0.81-1.037-1.367-2.226-1.672-3.567v0c-0.289-1.275-0.333-2.601-0.133-3.979 0.206-1.38 0.669-2.712 1.388-3.998 0.712-1.284 1.687-2.399 2.925-3.347 1.231-0.945 2.744-1.622 4.539-2.028v0c1.775-0.402 3.173-0.347 4.194 0.165 1.021 0.512 1.627 1.189 1.818 2.03v0c0.2 0.881-0.06 1.795-0.778 2.744-0.713 0.94-1.92 1.603-3.622 1.989v0c0.012-0.382 0.005-0.766-0.019-1.154-0.023-0.381-0.072-0.738-0.148-1.071v0c-0.115-0.507-0.318-0.91-0.611-1.209-0.299-0.297-0.722-0.384-1.269-0.259v0c-0.507 0.115-0.99 0.463-1.447 1.043-0.458 0.581-0.783 1.36-0.976 2.337-0.199 0.978-0.152 2.115 0.141 3.409v0c0.287 1.268 0.731 2.251 1.332 2.95 0.599 0.692 1.271 1.136 2.017 1.332 0.753 0.194 1.499 0.207 2.24 0.039v0c0.981-0.222 1.87-0.694 2.668-1.415 0.791-0.719 1.287-1.582 1.486-2.588v0l0.395 0.068c0.281 1.241 0.241 2.362-0.122 3.364-0.369 1.003-0.93 1.887-1.682 2.654-0.76 0.762-1.614 1.39-2.562 1.885-0.949 0.489-1.867 0.833-2.754 1.035z" fill="#223fc0" data-fill-palette-color="accent"></path><path d="M137.502 20.086v0c-0.851-0.086-1.568-0.443-2.151-1.073-0.577-0.622-0.801-1.569-0.674-2.842v0c0.012-0.123 0.025-0.245 0.037-0.368 0.012-0.123 0.038-0.244 0.078-0.363v0c-0.883 1.397-1.819 2.396-2.808 2.997-0.982 0.603-1.94 0.857-2.872 0.763v0c-0.851-0.086-1.628-0.466-2.33-1.142-0.695-0.675-1.216-1.621-1.561-2.839-0.345-1.218-0.434-2.657-0.267-4.318v0c0.172-1.709 0.564-3.213 1.176-4.513 0.611-1.293 1.356-2.367 2.233-3.22 0.869-0.848 1.794-1.463 2.775-1.846 0.974-0.383 1.9-0.531 2.778-0.443v0c0.98 0.099 1.832 0.487 2.554 1.165 0.723 0.678 1.165 1.678 1.328 3.001v0c0.117-0.408 0.209-0.78 0.277-1.117 0.068-0.337 0.109-0.567 0.121-0.689v0c0.094-0.658 0.48-1.114 1.159-1.369 0.679-0.255 1.41-0.343 2.193-0.264v0c0.688 0.069 1.321 0.27 1.899 0.604 0.586 0.327 0.956 0.822 1.109 1.483v0l0.05 0.222c-0.359 0.631-0.732 1.395-1.118 2.291-0.387 0.903-0.753 1.85-1.1 2.839-0.347 0.99-0.641 1.961-0.881 2.913-0.246 0.945-0.407 1.785-0.481 2.52v0c-0.081 0.803-0.048 1.367 0.098 1.692 0.139 0.323 0.332 0.498 0.577 0.522v0c0.415 0.042 0.823-0.213 1.222-0.764v0l0.282 0.172c-0.084 0.831-0.429 1.563-1.036 2.196-0.606 0.627-1.335 1.103-2.187 1.431-0.844 0.321-1.671 0.44-2.48 0.359zM131.996 14.828v0c0.633 0.064 1.395-0.434 2.286-1.492 0.884-1.059 1.712-2.623 2.483-4.691v0c0.07-0.213 0.142-0.422 0.218-0.628 0.068-0.199 0.122-0.397 0.163-0.593v0c-0.297-0.944-0.641-1.629-1.031-2.053-0.391-0.418-0.794-0.647-1.21-0.689v0c-0.613-0.062-1.214 0.205-1.803 0.799-0.589 0.594-1.097 1.365-1.522 2.312-0.432 0.94-0.697 1.9-0.795 2.88v0c-0.135 1.341-0.082 2.357 0.157 3.049 0.24 0.691 0.591 1.06 1.054 1.106z" fill="#223fc0" data-fill-palette-color="accent"></path><path d="M162.975 28.008v0c-1.188-0.652-1.906-1.69-2.155-3.114-0.255-1.427 0.09-3.002 1.035-4.723v0c0.487-0.888 1.129-1.831 1.927-2.83 0.801-1.004 1.647-2.007 2.54-3.008 0.883-0.998 1.696-1.946 2.437-2.842 0.742-0.896 1.295-1.678 1.66-2.343v0c0.26-0.474 0.401-0.88 0.423-1.22 0.016-0.342-0.147-0.607-0.488-0.795v0c-0.258-0.142-0.627-0.188-1.107-0.138-0.47 0.046-0.982 0.367-1.534 0.961v0l-0.254-0.304c1.017-1.854 2.246-3.084 3.686-3.69 1.444-0.612 2.886-0.524 4.326 0.266v0c1.356 0.744 2.056 1.701 2.1 2.873 0.041 1.177-0.304 2.432-1.035 3.764v0c-0.543 0.99-1.224 1.99-2.043 2.999-0.819 1.01-1.661 1.996-2.525 2.958-0.867 0.968-1.662 1.87-2.386 2.706-0.724 0.836-1.257 1.566-1.599 2.19v0c-0.51 0.93-0.528 1.525-0.055 1.785v0c0.276 0.151 0.761 0.156 1.456 0.014 0.691-0.136 1.493-0.41 2.406-0.822 0.913-0.412 1.864-0.929 2.852-1.55 0.979-0.618 1.916-1.329 2.81-2.134v0c0.218-0.497 0.435-0.971 0.651-1.422 0.22-0.457 0.423-0.857 0.611-1.198v0c0.945-1.722 1.874-3.018 2.789-3.89 0.915-0.871 1.767-1.415 2.557-1.629 0.786-0.209 1.449-0.165 1.988 0.131v0c0.75 0.411 1.201 1.197 1.352 2.357 0.146 1.157-0.171 2.446-0.951 3.868v0c-0.484 0.882-1.187 1.78-2.11 2.694-0.914 0.911-2.084 1.772-3.511 2.58v0c-1.083 1.817-1.7 3.426-1.852 4.826-0.155 1.406 0.125 2.304 0.839 2.696v0c0.45 0.247 1.067 0.281 1.852 0.103 0.781-0.172 1.624-0.549 2.528-1.13 0.91-0.578 1.81-1.336 2.7-2.276 0.896-0.936 1.687-2.029 2.371-3.277v0c0.405-0.738 0.773-1.531 1.106-2.378 0.342-0.85 0.644-1.679 0.908-2.487 0.264-0.808 0.447-1.491 0.551-2.051v0c0.201-0.366 0.561-0.652 1.08-0.859 0.525-0.203 1.108-0.305 1.748-0.305 0.646 0.003 1.227 0.146 1.743 0.429v0c0.516 0.283 0.91 0.738 1.184 1.364 0.273 0.626 0.308 1.48 0.104 2.562-0.204 1.082-0.766 2.463-1.688 4.143v0c-1.287 2.345-2.795 4.382-4.523 6.111-1.731 1.719-3.538 3.085-5.42 4.097-1.888 1.009-3.689 1.625-5.403 1.847-1.72 0.219-3.216-0.02-4.488-0.718v0c-1.116-0.612-1.85-1.464-2.204-2.555-0.357-1.085-0.423-2.323-0.198-3.714 0.231-1.388 0.652-2.838 1.264-4.352v0c-1.797 1.426-3.454 2.456-4.973 3.089-1.528 0.637-2.886 0.965-4.075 0.984-1.189 0.019-2.191-0.195-3.007-0.643z" fill="#223fc0" data-fill-palette-color="accent"></path><path d="M201.869 57.409v0c-1.123-1.398-1.77-2.782-1.941-4.154-0.172-1.372 0.022-2.66 0.582-3.864 0.56-1.204 1.376-2.237 2.448-3.098v0c1.013-0.814 2.189-1.438 3.525-1.871 1.341-0.428 2.735-0.604 4.183-0.53 1.451 0.08 2.871 0.454 4.258 1.122 1.387 0.667 2.627 1.681 3.72 3.041v0c1.354 1.686 1.963 3.219 1.826 4.601-0.136 1.382-0.74 2.504-1.812 3.365v0c-0.917 0.737-1.958 1.173-3.121 1.309-1.173 0.135-2.316-0.009-3.428-0.432-1.116-0.428-2.06-1.123-2.832-2.083v0c-0.399-0.496-0.728-1.065-0.989-1.706-0.261-0.642-0.428-1.341-0.501-2.099v0c-1.112 1.052-1.697 2.088-1.755 3.108-0.063 1.025 0.237 1.951 0.901 2.778v0c0.459 0.571 1.031 1.054 1.718 1.45 0.681 0.4 1.393 0.702 2.135 0.905 0.752 0.204 1.435 0.278 2.049 0.223v0l0.017 0.316c-0.997 0.801-2.011 1.277-3.039 1.428-1.029 0.151-2.032 0.066-3.009-0.256-0.978-0.311-1.885-0.785-2.722-1.421-0.841-0.632-1.579-1.343-2.213-2.132zM210.156 51.845v0c0.493 0.613 1.069 0.971 1.73 1.072 0.662 0.092 1.31 0.041 1.944-0.153 0.629-0.189 1.128-0.432 1.496-0.727v0c0.437-0.351 0.707-0.77 0.808-1.255 0.092-0.486-0.04-0.951-0.395-1.394v0c-0.274-0.341-0.699-0.619-1.275-0.833-0.585-0.215-1.309-0.243-2.173-0.083-0.864 0.159-1.871 0.621-3.02 1.386v0c0.205 0.845 0.5 1.507 0.885 1.987z" fill="#223fc0" data-fill-palette-color="accent"></path><path d="M218.706 87.782v0c-0.339-0.925-0.448-1.84-0.328-2.744 0.125-0.913 0.491-1.754 1.098-2.523v0c-0.446 0.134-0.907 0.121-1.381-0.04-0.483-0.165-0.877-0.663-1.18-1.492v0c-0.339-0.925-0.335-1.699 0.013-2.321 0.347-0.623 0.936-1.086 1.764-1.39v0c0.508-0.186 1.265-0.387 2.271-0.603 1.009-0.209 2.15-0.438 3.422-0.685 1.274-0.241 2.593-0.502 3.954-0.782 1.364-0.274 2.682-0.567 3.952-0.879 1.272-0.306 2.394-0.636 3.364-0.992v0c0.642-0.235 1.195-0.478 1.657-0.727 0.456-0.247 0.789-0.511 1-0.793v0l0.212-0.078c0.765 0.317 1.398 0.712 1.898 1.185 0.501 0.472 0.848 0.972 1.041 1.499v0c0.287 0.784 0.22 1.566-0.2 2.347-0.418 0.787-1.305 1.429-2.661 1.925v0c-0.668 0.245-1.635 0.519-2.902 0.823-1.257 0.308-2.525 0.575-3.804 0.803v0c1.479 0.398 2.702 0.952 3.669 1.662 0.964 0.703 1.608 1.495 1.931 2.375v0c0.431 1.176 0.239 2.383-0.576 3.621-0.814 1.238-2.352 2.272-4.613 3.1v0c-1.336 0.49-2.713 0.819-4.131 0.989-1.42 0.163-2.767 0.125-4.042-0.115-1.282-0.237-2.397-0.696-3.346-1.376-0.957-0.684-1.651-1.614-2.082-2.789zM221.559 84.769v0c0.271 0.739 0.826 1.25 1.665 1.532 0.833 0.285 1.799 0.376 2.898 0.272 1.099-0.104 2.181-0.351 3.248-0.742v0c0.687-0.252 1.328-0.552 1.921-0.9 0.594-0.349 1.051-0.713 1.371-1.093 0.316-0.371 0.406-0.742 0.269-1.115v0c-0.235-0.642-1.259-1.098-3.07-1.367-1.809-0.263-4.182-0.118-7.12 0.433v0c-1.183 0.907-1.577 1.9-1.182 2.98z" fill="#223fc0" data-fill-palette-color="accent"></path><path d="M7.593 162.62v0c-0.584-1.688-0.728-3.202-0.432-4.542 0.3-1.349 0.915-2.492 1.842-3.429 0.926-0.943 2.036-1.639 3.329-2.087v0c1.222-0.423 2.532-0.612 3.931-0.568 1.398 0.044 2.763 0.347 4.093 0.907 1.331 0.56 2.536 1.385 3.615 2.474 1.073 1.091 1.893 2.455 2.459 4.09v0c0.703 2.03 0.761 3.672 0.174 4.925-0.587 1.253-1.527 2.104-2.82 2.551v0c-1.106 0.383-2.229 0.442-3.37 0.179-1.135-0.266-2.155-0.785-3.06-1.558-0.898-0.775-1.548-1.741-1.948-2.899v0c-0.208-0.601-0.329-1.244-0.363-1.927-0.027-0.686 0.049-1.396 0.228-2.132v0c-1.389 0.611-2.283 1.384-2.683 2.319-0.398 0.942-0.426 1.907-0.083 2.897v0c0.242 0.698 0.615 1.347 1.119 1.947 0.505 0.6 1.072 1.12 1.703 1.561 0.63 0.441 1.244 0.739 1.841 0.894v0l-0.091 0.303c-1.196 0.414-2.301 0.518-3.313 0.311-1.019-0.205-1.934-0.619-2.744-1.244-0.81-0.625-1.504-1.373-2.081-2.245-0.571-0.874-1.019-1.783-1.346-2.727zM17.218 160.179v0c0.255 0.737 0.676 1.261 1.261 1.572 0.588 0.318 1.21 0.493 1.866 0.527 0.66 0.025 1.207-0.038 1.64-0.188v0c0.53-0.184 0.925-0.487 1.184-0.909 0.25-0.427 0.284-0.906 0.1-1.436v0c-0.143-0.414-0.45-0.818-0.92-1.213-0.474-0.386-1.141-0.651-2.002-0.795-0.867-0.141-1.967-0.046-3.3 0.285v0c-0.085 0.862-0.028 1.581 0.171 2.157z" fill="#223fc0" data-fill-palette-color="accent"></path><path d="M24.957 195.013v0c-0.547-0.693-0.818-1.529-0.815-2.508-0.001-0.984 0.315-2.026 0.947-3.126 0.622-1.101 1.586-2.166 2.891-3.195v0c1.343-1.059 2.692-1.813 4.045-2.262 1.358-0.444 2.654-0.646 3.887-0.608 1.228 0.043 2.325 0.28 3.292 0.71 0.966 0.441 1.729 1.015 2.288 1.725v0c0.619 0.784 0.925 1.676 0.919 2.673-0.002 1.003-0.432 2.027-1.291 3.071v0c1.101-0.581 2.136-1.153 3.104-1.716 0.973-0.567 1.793-1.113 2.459-1.639v0c0.886-0.699 1.44-1.323 1.661-1.872v0l0.169-0.133c0.847 0.046 1.599 0.238 2.256 0.573 0.656 0.345 1.172 0.757 1.55 1.236v0c0.5 0.634 0.728 1.326 0.683 2.075-0.045 0.75-0.432 1.413-1.163 1.989v0c-0.403 0.318-1.05 0.719-1.94 1.203-0.896 0.489-1.922 1.032-3.079 1.632-1.153 0.604-2.344 1.226-3.575 1.865-1.22 0.64-2.367 1.274-3.44 1.902-1.073 0.628-1.964 1.222-2.673 1.782v0c-0.596 0.47-1.023 0.907-1.281 1.31-0.257 0.403-0.271 0.75-0.042 1.04v0c0.165 0.21 0.407 0.367 0.726 0.473 0.313 0.11 0.596 0.126 0.849 0.049v0l0.014 0.316c-0.634 0.5-1.373 0.756-2.217 0.769-0.844 0.012-1.672-0.159-2.483-0.513-0.805-0.358-1.467-0.865-1.983-1.52v0c-0.559-0.709-0.804-1.423-0.734-2.141 0.066-0.723 0.337-1.412 0.814-2.066 0.482-0.659 1.04-1.256 1.673-1.79v0c-1.851 0.493-3.412 0.596-4.684 0.308-1.266-0.291-2.209-0.829-2.827-1.612zM30.126 194.059v0c0.394 0.5 1.284 0.7 2.67 0.601 1.386-0.099 3.123-0.598 5.211-1.496v0l1.028-0.537c0.468-0.866 0.709-1.592 0.726-2.179 0.016-0.588-0.105-1.045-0.364-1.373v0c-0.377-0.478-0.994-0.719-1.852-0.723-0.861-0.009-1.802 0.179-2.821 0.565-1.015 0.382-1.973 0.929-2.876 1.641v0c-0.865 0.682-1.444 1.34-1.739 1.972-0.294 0.633-0.288 1.142 0.017 1.529z" fill="#223fc0" data-fill-palette-color="accent"></path><path d="M54.881 223.447v0c-0.935-0.582-1.481-1.453-1.638-2.614-0.156-1.161 0.165-2.383 0.965-3.667v0c0.441-0.709 0.997-1.414 1.667-2.117 0.671-0.703 1.314-1.367 1.928-1.992v0c0.481-0.45 0.913-0.878 1.296-1.285 0.386-0.413 0.667-0.761 0.844-1.046v0c0.235-0.378 0.328-0.695 0.278-0.952-0.052-0.266-0.183-0.464-0.392-0.594v0c-0.209-0.13-0.457-0.192-0.744-0.185-0.296 0.009-0.588 0.11-0.876 0.301v0l-0.193-0.253c0.528-0.848 1.186-1.446 1.974-1.793 0.791-0.338 1.603-0.465 2.437-0.382 0.836 0.093 1.586 0.346 2.249 0.758v0c0.54 0.336 0.993 0.767 1.359 1.293 0.362 0.532 0.562 1.123 0.6 1.776 0.034 0.658-0.162 1.329-0.589 2.015v0c-0.257 0.412-0.621 0.875-1.093 1.387-0.478 0.509-0.982 1.029-1.514 1.56v0c-0.546 0.554-1.089 1.115-1.628 1.683-0.542 0.573-0.967 1.107-1.274 1.6v0c-0.286 0.459-0.446 0.879-0.481 1.26-0.035 0.381 0.092 0.662 0.382 0.842v0c0.534 0.333 1.45 0.209 2.745-0.371 1.292-0.574 2.669-1.571 4.133-2.989v0c0.287-0.281 0.58-0.59 0.879-0.928 0.289-0.336 0.557-0.701 0.803-1.096v0c0.192-0.308 0.368-0.637 0.53-0.987 0.158-0.345 0.3-0.708 0.424-1.09v0l0.136-0.218c0.678-0.352 1.372-0.508 2.081-0.47 0.709 0.038 1.334 0.226 1.874 0.562v0c0.726 0.452 1.226 1.105 1.5 1.96 0.27 0.861 0.109 1.768-0.484 2.721v0c-0.351 0.564-0.858 1.146-1.523 1.748-0.668 0.608-1.37 1.231-2.105 1.869v0c-0.727 0.611-1.426 1.224-2.098 1.838-0.675 0.619-1.194 1.219-1.556 1.8v0c-0.528 0.848-0.489 1.46 0.115 1.836v0c0.163 0.101 0.392 0.179 0.688 0.235 0.302 0.059 0.645 0.006 1.029-0.158v0l0.18 0.197c-0.466 0.749-1.077 1.284-1.832 1.604-0.761 0.316-1.55 0.438-2.367 0.365-0.813-0.079-1.551-0.324-2.213-0.737v0c-0.854-0.531-1.425-1.317-1.712-2.358-0.287-1.041 0.008-2.267 0.887-3.679v0l0.038-0.061c-1.752 0.925-3.277 1.414-4.576 1.468-1.299 0.054-2.343-0.165-3.133-0.656z" fill="#223fc0" data-fill-palette-color="accent"></path><path d="M95.202 240.991v0c-1.575-0.356-2.822-1.014-3.742-1.972-0.919-0.959-1.522-2.077-1.808-3.356-0.291-1.287-0.286-2.594 0.014-3.922v0c0.287-1.268 0.82-2.477 1.6-3.626 0.773-1.151 1.756-2.149 2.951-2.994 1.188-0.847 2.54-1.428 4.056-1.744 1.512-0.324 3.162-0.284 4.95 0.121v0c1.762 0.399 2.99 1.045 3.686 1.939 0.701 0.902 0.957 1.77 0.768 2.605v0c-0.199 0.881-0.823 1.589-1.87 2.123-1.049 0.541-2.42 0.62-4.115 0.236v0c0.182-0.338 0.341-0.684 0.477-1.039 0.143-0.353 0.252-0.697 0.328-1.03v0c0.113-0.5 0.102-0.948-0.032-1.344-0.135-0.395-0.476-0.655-1.024-0.779v0c-0.5-0.113-1.082-0.006-1.745 0.321-0.663 0.327-1.291 0.886-1.885 1.678-0.593 0.792-1.035 1.832-1.327 3.119v0c-0.285 1.261-0.307 2.333-0.065 3.216 0.235 0.881 0.648 1.571 1.237 2.069 0.59 0.491 1.256 0.821 1.996 0.988v0c0.974 0.221 1.973 0.18 2.995-0.121 1.024-0.308 1.839-0.871 2.445-1.688v0l0.328 0.221c-0.281 1.241-0.8 2.232-1.556 2.973-0.758 0.747-1.642 1.302-2.65 1.663-1.006 0.354-2.04 0.552-3.101 0.592-1.06 0.034-2.03-0.049-2.911-0.249z" fill="#223fc0" data-fill-palette-color="accent"></path><path d="M139.473 242.754v0c-0.851 0.086-1.621-0.118-2.31-0.612-0.69-0.494-1.098-1.374-1.227-2.64v0c-0.012-0.123-0.025-0.245-0.037-0.368-0.012-0.123-0.011-0.243 0.005-0.361v0c-0.588 1.531-1.299 2.69-2.135 3.475-0.843 0.78-1.727 1.217-2.653 1.31v0c-0.851 0.086-1.684-0.129-2.499-0.644-0.809-0.523-1.504-1.344-2.085-2.461-0.581-1.117-0.955-2.503-1.122-4.157v0c-0.172-1.702-0.087-3.244 0.254-4.627 0.334-1.389 0.846-2.582 1.536-3.58 0.682-1.004 1.459-1.791 2.33-2.361 0.878-0.563 1.757-0.889 2.634-0.978v0c0.967-0.098 1.871 0.11 2.714 0.623 0.837 0.521 1.466 1.409 1.89 2.666v0c0.026-0.422 0.042-0.805 0.048-1.15 0-0.344-0.007-0.577-0.019-0.699v0c-0.039-0.656 0.246-1.173 0.854-1.551 0.614-0.385 1.31-0.617 2.086-0.696v0c0.681-0.069 1.337-0.001 1.97 0.203 0.64 0.21 1.101 0.618 1.382 1.222v0l0.094 0.217c-0.227 0.683-0.439 1.502-0.638 2.458-0.199 0.955-0.367 1.949-0.503 2.981-0.143 1.032-0.238 2.036-0.284 3.01-0.053 0.975-0.042 1.827 0.032 2.555v0c0.081 0.803 0.222 1.349 0.423 1.638 0.2 0.282 0.423 0.411 0.669 0.386v0c0.415-0.042 0.763-0.373 1.044-0.992v0l0.302 0.124c0.083 0.824-0.106 1.603-0.569 2.337-0.469 0.735-1.085 1.344-1.847 1.827-0.763 0.483-1.542 0.765-2.339 0.845zM133.062 238.72v0c0.633-0.064 1.274-0.7 1.921-1.907 0.648-1.207 1.148-2.894 1.5-5.062v0c0.026-0.223 0.052-0.442 0.078-0.658 0.027-0.209 0.044-0.414 0.051-0.614v0c-0.486-0.859-0.959-1.454-1.418-1.785-0.467-0.331-0.904-0.476-1.313-0.435v0c-0.606 0.061-1.139 0.438-1.598 1.132-0.459 0.7-0.802 1.553-1.031 2.559-0.228 1.007-0.294 1.993-0.195 2.96v0c0.136 1.341 0.386 2.323 0.752 2.946 0.372 0.623 0.79 0.91 1.253 0.864z" fill="#223fc0" data-fill-palette-color="accent"></path><path d="M172.355 232.521v0c-1.176 0.645-2.429 0.694-3.76 0.145-1.341-0.552-2.481-1.682-3.42-3.391v0c-0.484-0.882-0.928-1.926-1.333-3.132-0.414-1.209-0.803-2.451-1.168-3.726-0.374-1.278-0.735-2.469-1.084-3.573-0.355-1.101-0.713-1.981-1.075-2.641v0c-0.26-0.474-0.53-0.809-0.811-1.007-0.271-0.195-0.577-0.198-0.919-0.011v0c-0.258 0.142-0.494 0.423-0.707 0.845-0.213 0.422-0.218 1.025-0.013 1.81v0l-0.398 0.043c-1.011-1.841-1.387-3.528-1.127-5.06 0.256-1.538 1.104-2.702 2.544-3.492v0c1.349-0.741 2.527-0.814 3.533-0.219 1.003 0.589 1.868 1.546 2.595 2.872v0c0.543 0.99 1.021 2.094 1.432 3.312 0.409 1.228 0.787 2.464 1.135 3.709 0.348 1.245 0.679 2.395 0.992 3.448 0.313 1.054 0.639 1.889 0.978 2.507v0c0.507 0.924 0.998 1.255 1.472 0.995v0c0.276-0.151 0.542-0.555 0.798-1.211 0.25-0.653 0.449-1.472 0.595-2.457 0.14-0.982 0.21-2.055 0.211-3.219 0.004-1.158-0.092-2.322-0.291-3.494v0c-0.299-0.445-0.579-0.884-0.841-1.318-0.264-0.425-0.49-0.808-0.678-1.149v0c-0.942-1.715-1.534-3.185-1.777-4.41-0.24-1.234-0.241-2.237-0.001-3.009 0.242-0.781 0.631-1.318 1.164-1.611v0c0.75-0.412 1.652-0.368 2.706 0.13 1.051 0.492 1.965 1.446 2.742 2.862v0c0.481 0.876 0.86 1.944 1.139 3.203 0.269 1.257 0.363 2.701 0.281 4.33v0c0.951 1.874 1.973 3.253 3.067 4.135 1.096 0.873 1.995 1.117 2.697 0.732v0c0.45-0.247 0.812-0.746 1.086-1.498 0.268-0.748 0.402-1.657 0.4-2.725-0.005-1.075-0.163-2.237-0.474-3.486-0.305-1.253-0.799-2.5-1.481-3.742v0c-0.398-0.726-0.863-1.458-1.393-2.197-0.531-0.739-1.069-1.435-1.615-2.087-0.536-0.65-1.01-1.171-1.42-1.563v0c-0.198-0.36-0.244-0.814-0.139-1.363 0.108-0.543 0.333-1.085 0.676-1.625 0.344-0.54 0.773-0.951 1.29-1.234v0c0.51-0.28 1.102-0.367 1.776-0.262 0.669 0.109 1.403 0.537 2.204 1.284 0.797 0.741 1.655 1.948 2.574 3.622v0c1.281 2.333 2.183 4.687 2.706 7.061 0.523 2.374 0.706 4.62 0.549 6.736-0.16 2.125-0.605 3.966-1.335 5.522-0.736 1.559-1.734 2.685-2.994 3.376v0c-1.116 0.613-2.224 0.776-3.325 0.491-1.107-0.282-2.182-0.89-3.225-1.823-1.037-0.937-2.03-2.062-2.978-3.377v0c0.237 2.266 0.214 4.207-0.07 5.823-0.278 1.612-0.725 2.923-1.341 3.933-0.616 1.01-1.332 1.739-2.149 2.186z" fill="#223fc0" data-fill-palette-color="accent"></path><path d="M217.074 198.371v0c-1.118 1.393-2.323 2.32-3.616 2.783-1.302 0.464-2.597 0.552-3.884 0.264-1.291-0.282-2.471-0.852-3.538-1.708v0c-1.008-0.81-1.866-1.818-2.572-3.026-0.706-1.208-1.176-2.524-1.41-3.949-0.234-1.425-0.177-2.884 0.171-4.377 0.353-1.489 1.071-2.908 2.155-4.258v0c1.345-1.675 2.704-2.598 4.078-2.768 1.373-0.17 2.594 0.174 3.66 1.031v0c0.912 0.732 1.56 1.652 1.945 2.758 0.379 1.102 0.481 2.242 0.308 3.42-0.178 1.173-0.651 2.237-1.418 3.192v0c-0.398 0.496-0.878 0.94-1.438 1.333-0.566 0.388-1.208 0.702-1.927 0.94v0c1.256 0.851 2.387 1.197 3.392 1.038 1.009-0.164 1.841-0.654 2.496-1.47v0c0.463-0.576 0.814-1.238 1.054-1.984 0.24-0.747 0.378-1.504 0.415-2.272 0.038-0.768-0.037-1.446-0.222-2.035v0l0.305-0.084c0.987 0.792 1.662 1.672 2.026 2.64 0.369 0.972 0.505 1.967 0.407 2.985-0.098 1.018-0.362 2.003-0.794 2.956-0.437 0.948-0.967 1.812-1.593 2.591zM209.886 191.521v0c0.488-0.608 0.708-1.243 0.66-1.905-0.044-0.667-0.226-1.287-0.546-1.86-0.33-0.572-0.674-1.002-1.032-1.289v0c-0.438-0.351-0.904-0.524-1.4-0.518-0.495 0.015-0.918 0.242-1.269 0.679v0c-0.274 0.341-0.453 0.816-0.538 1.424-0.075 0.607 0.056 1.313 0.393 2.118 0.342 0.809 1.007 1.691 1.997 2.643v0c0.775-0.387 1.354-0.817 1.735-1.292z" fill="#223fc0" data-fill-palette-color="accent"></path><path d="M236.796 162.406v0c-0.336 0.919-0.842 1.685-1.518 2.297-0.68 0.604-1.497 1.004-2.451 1.202v0c0.428 0.186 0.77 0.493 1.029 0.923 0.256 0.436 0.233 1.065-0.068 1.888v0c-0.336 0.919-0.838 1.504-1.505 1.755-0.661 0.254-1.406 0.229-2.235-0.074v0c-0.501-0.183-1.201-0.52-2.101-1.009-0.902-0.483-1.915-1.039-3.039-1.669-1.122-0.636-2.291-1.286-3.506-1.949-1.215-0.663-2.403-1.287-3.566-1.873-1.165-0.579-2.23-1.045-3.193-1.397v0c-0.643-0.235-1.217-0.409-1.722-0.521-0.508-0.106-0.934-0.116-1.279-0.03v0l-0.202-0.074c-0.379-0.736-0.608-1.446-0.685-2.13-0.08-0.678-0.024-1.28 0.169-1.807v0c0.284-0.778 0.839-1.329 1.664-1.654 0.819-0.327 1.906-0.243 3.263 0.254v0c0.662 0.242 1.571 0.655 2.727 1.238 1.152 0.574 2.288 1.183 3.408 1.826v0c-0.869-1.25-1.444-2.455-1.726-3.615-0.276-1.157-0.255-2.17 0.062-3.038v0c0.428-1.169 1.349-1.965 2.763-2.387 1.413-0.416 3.243-0.213 5.493 0.61v0c1.33 0.487 2.588 1.121 3.773 1.904 1.185 0.783 2.185 1.674 3.001 2.671 0.813 1.004 1.365 2.073 1.657 3.208 0.285 1.132 0.214 2.282-0.213 3.451zM232.698 162.853v0c0.268-0.733 0.175-1.473-0.28-2.223-0.455-0.749-1.135-1.439-2.041-2.068-0.897-0.634-1.873-1.144-2.926-1.53v0c-0.688-0.251-1.367-0.435-2.04-0.549-0.672-0.115-1.253-0.13-1.742-0.047-0.483 0.086-0.791 0.312-0.926 0.678v0c-0.235 0.643 0.248 1.643 1.45 2.999 1.205 1.366 3.101 2.785 5.688 4.256v0c1.483 0.069 2.422-0.437 2.817-1.516z" fill="#223fc0" data-fill-palette-color="accent"></path><path d="M0 121.806c0-5.628 4.562-10.19 10.19-10.189 5.628 0 10.19 4.562 10.189 10.189 0 5.628-4.562 10.19-10.189 10.19-5.628 0-10.19-4.562-10.19-10.19z" fill="#223fc0" data-fill-palette-color="accent"></path><path d="M224.052 121.806c0-5.628 4.562-10.19 10.19-10.189 5.628 0 10.19 4.562 10.189 10.189 0 5.628-4.562 10.19-10.189 10.19-5.628 0-10.19-4.562-10.19-10.19z" fill="#223fc0" data-fill-palette-color="accent"></path></g><g id="text-1"></g></svg></g></svg></g></svg></g><defs></defs></svg><rect width="395.52" height="142.9218561051111" fill="none" stroke="none" visibility="hidden"></rect></g></svg></g></svg>